<svg width="51" height="16" viewBox="0 0 51 16" fill="none" xmlns="http://www.w3.org/2000/svg">
<path d="M10.7752 15.1757L9.62815 11.9806H4.32208L3.17501 15.1757H0.360123L5.73656 0.827829H8.28052L13.657 15.1757H10.7717H10.7752ZM6.97512 4.59005L5.30729 9.2118H8.63942L6.9716 4.59005H6.97512Z" fill="white"/>
<path d="M19.8849 15.1229H14.994V0.877146H19.8849C23.8293 0.877146 26.5527 3.94892 26.5527 7.96125V8.00352C26.5527 12.0123 23.8293 15.1264 19.8849 15.1264V15.1229ZM23.6639 8C23.6639 5.47776 22.1403 3.70586 19.8814 3.70586H17.7491V12.2941H19.8814C22.1403 12.2941 23.6639 10.5645 23.6639 8.03875V7.99648V8Z" fill="white"/>
<path d="M27.8827 15.1229V0.877146H37.3443V3.66711H30.6237V6.5557H36.5385V9.34566H30.6237V12.3364H37.4322V15.1264H27.8792L27.8827 15.1229Z" fill="white"/>
<path d="M51 13.1466L48.2766 9.08146V0.877146H51V13.1466Z" fill="#EDA320"/>
<path d="M50.9015 15.1229H47.5658L41.4927 6.06605V15.1229H38.7693V0.877146H41.3133L50.9015 15.1229Z" fill="white"/>
</svg>
