<svg xmlns="http://www.w3.org/2000/svg" width="229" height="61" fill="none">
  <path
    fill="url(#a)"
    d="m17.285 58.026 1.42-6.582c1.583-7.34-3.99-14.274-11.473-14.274H.729C2.78 46.393 8.992 54.04 17.285 58.026Z"
  />
  <path
    fill="url(#b)"
    d="M20.137 59.22A30.24 30.24 0 0 0 30.39 61c14.5 0 26.63-10.193 29.661-23.83H40.215c-8.942 0-16.672 6.259-18.564 15.03l-1.514 7.02Z"
  />
  <path
    fill="url(#c)"
    d="M60.57 34.12c.14-1.188.211-2.397.211-3.623 0-16.002-12.276-29.126-27.892-30.401l-4.26 19.749c-1.583 7.34 3.99 14.274 11.473 14.274h20.467Z"
  />
  <path
    fill="url(#d)"
    d="M29.8 0C13.288.316 0 13.849 0 30.497c0 1.226.072 2.435.212 3.622h6.907c8.941 0 16.672-6.259 18.564-15.03L29.8 0Z"
  />
  <path
    fill="#fff"
    d="M124.063 13.317c1.523 0 2.935.159 4.236.476 1.332.317 2.57.762 3.712 1.333a16.177 16.177 0 0 1 3.14 2.047l-1.999 3.475c-.38-.445-.888-.873-1.522-1.286a12.33 12.33 0 0 0-2.142-1.094c-.793-.35-1.665-.62-2.617-.81a12.326 12.326 0 0 0-2.902-.333c-2.602 0-4.522.492-5.759 1.476-1.237.983-1.856 2.332-1.856 4.046.001 1.205.317 2.157.952 2.855.634.698 1.602 1.27 2.903 1.714 1.332.444 3.014.904 5.044 1.38 2.348.507 4.379 1.126 6.092 1.856 1.713.73 3.029 1.714 3.949 2.951.92 1.206 1.381 2.825 1.381 4.856 0 1.618-.318 3.03-.952 4.236a8.183 8.183 0 0 1-2.571 2.951c-1.11.762-2.41 1.332-3.901 1.713-1.491.35-3.11.525-4.855.525a24.29 24.29 0 0 1-5.043-.525 22.75 22.75 0 0 1-4.617-1.618 19.915 19.915 0 0 1-4.092-2.617l2.045-3.618c.508.539 1.159 1.079 1.952 1.618a22.33 22.33 0 0 0 2.76 1.428 21.1 21.1 0 0 0 3.379 1.095c1.206.254 2.443.381 3.712.381 2.411 0 4.283-.428 5.615-1.285 1.333-.889 1.998-2.174 1.998-3.855 0-1.27-.38-2.286-1.141-3.047-.73-.762-1.825-1.396-3.284-1.904-1.46-.507-3.236-1.016-5.329-1.523-2.285-.571-4.205-1.19-5.759-1.857-1.555-.698-2.729-1.602-3.522-2.712-.761-1.111-1.141-2.555-1.141-4.332 0-2.158.523-3.983 1.57-5.474 1.047-1.491 2.49-2.618 4.33-3.38 1.84-.762 3.919-1.142 6.234-1.142ZM108.312 47.35h-4.568l-3.998-9.9h-14.18l-3.95 9.9h-4.57l13.85-33.795h3.616l13.8 33.795Zm59.312-29.987h-11.658V47.35h-4.283V17.363h-11.66v-3.808h27.601v3.808Zm28.327 0h-18.225v10.948h15.846v3.57h-15.846v11.661h18.654v3.808h-22.938V13.555h22.509v3.808Zm21.723-3.808c1.491 0 2.855.317 4.093.952a10.249 10.249 0 0 1 3.236 2.475 11.19 11.19 0 0 1 2.142 3.475c.507 1.27.76 2.57.76 3.903 0 1.555-.3 3.03-.903 4.426a9.763 9.763 0 0 1-2.475 3.57 8.546 8.546 0 0 1-3.712 2.047L229 47.35h-4.854l-7.709-12.137h-8.947V47.35h-4.283V13.555h14.467ZM86.422 34.117h12.373l-6.092-15.612-6.281 15.612Zm121.068-2.713h10.232c1.174 0 2.189-.317 3.046-.952.888-.666 1.57-1.538 2.045-2.617a8.054 8.054 0 0 0 .762-3.475c0-1.269-.285-2.428-.856-3.475-.571-1.079-1.318-1.936-2.238-2.57a5.242 5.242 0 0 0-3.044-.952h-9.947v14.041Z"
  />
  <defs>
    <linearGradient
      id="a"
      x1="35.848"
      x2="23.757"
      y1="0"
      y2="61.064"
      gradientUnits="userSpaceOnUse"
    >
      <stop stop-color="#F4D5B1" />
      <stop offset="1" stop-color="#FFD29F" />
    </linearGradient>
    <linearGradient
      id="b"
      x1="35.848"
      x2="23.757"
      y1="0"
      y2="61.064"
      gradientUnits="userSpaceOnUse"
    >
      <stop stop-color="#F4D5B1" />
      <stop offset="1" stop-color="#FFD29F" />
    </linearGradient>
    <linearGradient
      id="c"
      x1="35.848"
      x2="23.757"
      y1="0"
      y2="61.064"
      gradientUnits="userSpaceOnUse"
    >
      <stop stop-color="#F4D5B1" />
      <stop offset="1" stop-color="#FFD29F" />
    </linearGradient>
    <linearGradient
      id="d"
      x1="35.848"
      x2="23.757"
      y1="0"
      y2="61.064"
      gradientUnits="userSpaceOnUse"
    >
      <stop stop-color="#F4D5B1" />
      <stop offset="1" stop-color="#FFD29F" />
    </linearGradient>
  </defs>
</svg>
