<svg xmlns="http://www.w3.org/2000/svg" width="161" height="26" fill="none">
  <path
    fill="#FFFDFD"
    d="M31 19.7c-.4 0-.6-.1-.8-.2-.1-.2-.2-.4-.2-.7V7.6c0-.3.1-.6.2-.7.2-.2.4-.3.8-.3h4.7c1.8 0 3.1.4 4 1.1.8.8 1.3 1.9 1.3 3.4s-.4 2.6-1.3 3.4c-.8.7-2.2 1.1-4 1.1h-1.8v3.1c0 .3-.1.6-.2.7-.2.2-.4.2-.8.2H31v.1Zm4.4-6.9c.5 0 .9-.1 1.2-.4.3-.3.4-.7.4-1.3 0-.6-.1-1-.4-1.3-.3-.3-.7-.4-1.2-.4h-1.5v3.4h1.5ZM45.5 20c-1.2 0-2.2-.4-2.9-1.2-.7-.8-1.1-1.9-1.1-3.3 0-1.1.2-2 .7-2.8.5-.8 1.2-1.4 2.1-1.9.9-.4 2-.7 3.1-.7 1 0 1.8.1 2.6.3.8.2 1.4.5 2.1.9V19c0 .2 0 .4-.1.5-.1.1-.3.1-.5.1h-2c-.1 0-.3 0-.3-.1l-.2-.2-.3-.6c-.4.4-.8.7-1.3.9-.5.3-1.2.4-1.9.4Zm1.4-2.6c.5 0 .9-.1 1.2-.4.3-.2.4-.6.4-1v-3c-.2-.1-.6-.2-.9-.2-.7 0-1.2.2-1.6.7-.4.5-.6 1.1-.6 2 0 1.2.5 1.9 1.5 1.9ZM54.8 19.7c-.4 0-.6-.1-.8-.2-.2-.2-.2-.4-.2-.7V11c0-.2 0-.4.1-.5.1-.1.3-.1.5-.1h2c.2 0 .3 0 .3.1.1 0 .1.1.2.2l.1.6c.4-.4.8-.6 1.4-.8.6-.2 1.2-.3 2-.3 1 0 1.9.3 2.5.9.6.6 1 1.4 1 2.6v5.1c0 .3-.1.6-.2.7-.1.2-.4.2-.8.2H61c-.4 0-.6-.1-.8-.2-.2-.2-.2-.4-.2-.7v-4.9c0-.4-.1-.7-.3-.8-.2-.2-.4-.3-.8-.3s-.7.1-.9.3c-.2.2-.3.5-.3.8v4.8c0 .3-.1.6-.2.7-.1.2-.4.2-.8.2h-1.9v.1ZM70.7 20c-1.8 0-3.2-.4-4.2-1.3-1-.8-1.5-2-1.5-3.6 0-1 .2-1.8.7-2.6.4-.7 1.1-1.3 1.9-1.7.9-.4 1.9-.6 3-.6.9 0 1.6.1 2.2.3.6.2 1.2.4 1.6.8.1.1.2.2.2.3 0 .1-.1.2-.2.4l-.8 1.4c-.1.2-.2.3-.3.3-.1 0-.2-.1-.4-.2-.3-.2-.7-.4-1-.5-.3-.1-.7-.2-1.1-.2-.6 0-1.2.2-1.6.6-.4.4-.6 1-.6 1.7s.2 1.3.6 1.7c.4.4.9.6 1.6.6.4 0 .8-.1 1.1-.2.3-.1.7-.3 1-.5.2-.1.3-.2.4-.2.1 0 .2.1.3.3l.9 1.5c.1.1.1.2.1.3 0 .1-.1.2-.2.3-.5.3-1.1.6-1.8.8-.3.2-1 .3-1.9.3ZM79.8 20c-1.2 0-2.2-.4-2.9-1.2-.7-.8-1.1-1.9-1.1-3.3 0-1.1.2-2 .7-2.8.5-.8 1.2-1.4 2.1-1.9.9-.4 2-.7 3.1-.7 1 0 1.8.1 2.6.3.8.2 1.4.5 2.1.9V19c0 .2 0 .4-.1.5-.1.1-.3.1-.5.1h-2c-.1 0-.3 0-.3-.1l-.2-.2-.3-.6c-.4.4-.8.7-1.3.9-.5.3-1.1.4-1.9.4Zm1.5-2.6c.5 0 .9-.1 1.2-.4.3-.2.4-.6.4-1v-3c-.2-.1-.6-.2-.9-.2-.7 0-1.2.2-1.6.7-.4.5-.6 1.1-.6 2-.1 1.2.4 1.9 1.5 1.9ZM98.6 19c.1.1.1.2.1.3 0 .1 0 .2-.1.3-.1.1-.2.1-.3.1h-3.4c-.1 0-.2-.1-.3-.2L92 15.9v2.8c0 .3-.1.6-.2.7-.2.2-.4.2-.8.2h-1.9c-.4 0-.6-.1-.8-.2-.1-.2-.2-.4-.2-.7V7.6c0-.3.1-.6.2-.7.2-.2.4-.3.8-.3H91c.4 0 .6.1.8.3.2.2.2.4.2.7V14l2.5-3.3c.1-.1.2-.2.3-.2.1 0 .2-.1.4-.1h3c.1 0 .2 0 .3.1.1.1.1.2.1.3 0 .1 0 .2-.1.3l-3.3 3.8 3.4 4.1ZM104.8 20c-1.1 0-2-.2-2.9-.5-.8-.4-1.5-.9-2-1.6-.5-.7-.7-1.6-.7-2.6 0-1.6.5-2.9 1.4-3.7.9-.9 2.3-1.3 4-1.3 1.7 0 3 .4 3.8 1.3.9.8 1.3 2 1.3 3.5 0 .6-.3 1-.8 1h-6c0 .6.2 1 .6 1.3.4.3 1.1.4 1.9.4.5 0 1 0 1.3-.1.4-.1.7-.3 1.1-.4.2-.1.3-.1.3-.1.1 0 .2.1.3.2l.7 1.2c.1.1.1.2.1.3 0 .1-.1.2-.2.3-.5.3-1.1.6-1.8.8-.8-.1-1.5 0-2.4 0Zm1.5-6c0-.5-.1-.9-.4-1.1-.3-.3-.7-.4-1.3-.4-.6 0-1 .1-1.3.4-.3.3-.4.6-.4 1.1h3.4ZM116.4 20c-1.1 0-2.1-.1-3.1-.3-1-.2-1.7-.6-2.3-1-.2-.1-.3-.3-.3-.4 0-.1 0-.2.1-.3l.9-1.5c.1-.2.2-.2.3-.2.1 0 .2 0 .3.1.5.3 1 .5 1.6.7.6.2 1.2.3 1.8.3.6 0 1-.1 1.3-.3.3-.2.4-.5.4-.9s-.2-.7-.5-.9c-.3-.2-.9-.5-1.8-.8-1.3-.5-2.3-1-3-1.6-.7-.6-1.1-1.5-1.1-2.5 0-1.3.5-2.2 1.4-2.9.9-.7 2.1-1 3.6-1 1.1 0 2 .1 2.7.3.8.2 1.4.5 1.9.8.2.2.3.3.3.5 0 .1 0 .2-.1.3l-.9 1.5c-.1.2-.2.2-.3.2-.1 0-.2 0-.3-.1-.7-.5-1.6-.7-2.7-.7-.6 0-1 .1-1.3.3-.3.2-.4.5-.4.9 0 .3.1.5.2.7.2.2.4.3.6.5.3.1.7.3 1.2.5l.4.1c.9.4 1.7.7 2.2 1.1.6.3 1 .8 1.3 1.3.3.5.4 1.1.4 1.8 0 1.1-.4 2.1-1.3 2.7-.6.4-1.9.8-3.5.8ZM125.5 19.7c-.2 0-.3 0-.4-.1-.1-.1-.2-.2-.2-.4l-2.5-8.3v-.2c0-.2.1-.3.4-.3h2.5c.2 0 .3 0 .4.1.1.1.1.1.2.3l1 4.4 1.3-3.5c.1-.2.1-.3.2-.3.1-.1.2-.1.4-.1h1.2c.2 0 .3 0 .4.1.1.1.1.2.2.3l1.3 3.5 1.1-4.4c0-.1.1-.2.2-.3.1-.1.2-.1.3-.1h2.6c.3 0 .4.1.4.3v.2l-2.5 8.3c-.1.2-.1.3-.2.4-.1.1-.2.1-.4.1h-1.9c-.2 0-.3 0-.4-.1-.1-.1-.2-.2-.2-.4l-1.3-3.5-1.3 3.5c-.1.2-.1.3-.2.4-.1.1-.2.1-.4.1h-2.2ZM141.1 20c-1.2 0-2.2-.4-2.9-1.2-.7-.8-1.1-1.9-1.1-3.3 0-1.1.2-2 .7-2.8.5-.8 1.2-1.4 2.1-1.9.9-.4 2-.7 3.1-.7 1 0 1.8.1 2.6.3.8.2 1.4.5 2.1.9V19c0 .2 0 .4-.1.5-.1.1-.3.1-.5.1h-2c-.1 0-.2 0-.3-.1l-.2-.2-.3-.6c-.4.4-.8.7-1.3.9-.5.3-1.1.4-1.9.4Zm1.5-2.6c.5 0 .9-.1 1.2-.4.3-.2.4-.6.4-1v-3c-.2-.1-.6-.2-.9-.2-.7 0-1.2.2-1.6.7-.4.5-.6 1.1-.6 2-.1 1.2.4 1.9 1.5 1.9ZM150.4 23.6c-.4 0-.6-.1-.8-.2-.1-.2-.2-.4-.2-.7v-11c.6-.4 1.3-.8 2.2-1 .9-.3 1.8-.4 2.7-.4 3.9 0 5.8 1.6 5.8 4.9 0 1.5-.4 2.7-1.2 3.6-.8.9-2 1.3-3.5 1.3-.4 0-.8-.1-1.2-.2-.4-.1-.7-.2-1-.4v3.2c0 .3-.1.6-.2.7-.2.2-.4.2-.8.2h-1.8Zm4.2-6.2c.6 0 1-.2 1.2-.6.3-.4.4-1 .4-1.7 0-.8-.2-1.4-.5-1.8-.3-.3-.8-.5-1.5-.5-.4 0-.8.1-1 .2v3c0 .4.1.8.4 1 .2.3.6.4 1 .4Z"
  />
  <path
    fill="#633001"
    fill-rule="evenodd"
    d="M4.5 4.4C4.1 2.4 5.7.5 7.7.5 9.5.5 11 2 11 3.8v4h2.7v-4C13.7 2 15.2.5 17 .5c2 0 3.6 1.9 3.2 3.9l-.9 4.7c3 1.3 5.3 3.6 5.3 6.5v1.7c0 2.4-1.6 4.4-3.8 5.7-2.2 1.4-5.2 2.2-8.5 2.2S6 24.4 3.8 23C1.6 21.7 0 19.7 0 17.3v-1.7c0-2.9 2.3-5.2 5.3-6.5l-.8-4.7Zm13.7 5.4 1-5.5c.3-1.4-.8-2.7-2.2-2.7-1.3 0-2.3 1-2.3 2.3V9c-.3 0-.7-.1-1-.1h-1.3c-.5 0-.9 0-1.4.1-.3 0-.7.1-1 .1V4c0-1.3-1-2.3-2.3-2.3-1.4 0-2.5 1.3-2.2 2.7l1 5.6c-3.2 1.2-5.4 3.4-5.4 5.9v1.7c0 3.8 5 6.9 11.2 6.9 6.2 0 11.2-3.1 11.2-6.9v-1.7c.1-2.7-2.1-4.9-5.3-6.1Z"
    clip-rule="evenodd"
  />
  <path
    fill="#FEDC90"
    d="M23.6 17.4c0 3.8-5 6.9-11.2 6.9-6.2 0-11.2-3.1-11.2-6.9v-1.7h22.5v1.7h-.1Z"
  />
  <path
    fill="#D1884F"
    fill-rule="evenodd"
    d="M5.5 4.2c-.3-1.4.8-2.7 2.2-2.7 1.3 0 2.3 1 2.3 2.3V9c.8-.1 1.6-.2 2.4-.2.8 0 1.6.1 2.3.1V3.8c0-1.3 1-2.3 2.3-2.3 1.4 0 2.5 1.3 2.2 2.7l-1 5.5c3.3 1.2 5.5 3.4 5.5 5.9 0 3.8-5 6.9-11.2 6.9-6.2 0-11.2-3.1-11.2-6.9 0-2.5 2.2-4.7 5.4-5.9L5.5 4.2Z"
    clip-rule="evenodd"
  />
  <path
    fill="#633001"
    d="M9.3 15.2c0 1-.6 1.9-1.2 1.9s-1.2-.8-1.2-1.9c0-1 .6-1.9 1.2-1.9s1.2.8 1.2 1.9ZM17.9 15.2c0 1-.6 1.9-1.2 1.9-.7 0-1.2-.8-1.2-1.9 0-1 .6-1.9 1.2-1.9s1.2.8 1.2 1.9Z"
  />
</svg>
