<svg xmlns="http://www.w3.org/2000/svg" width="229" height="57" fill="none">
  <g clip-path="url(#a)">
    <path
      fill="#F0B90B"
      d="M23.925 19.293 7.909 9.98 0 14.58v27.84l7.908 4.602 16.017-9.314 16.018 9.314 7.908-4.601V14.58l-7.908-4.601-16.017 9.314Zm16.018-.83v20.074l-16.017-9.32-16.018 9.315V18.469l16.017 9.314 16.018-9.32Z"
    />
    <path
      fill="#F0B90B"
      d="m23.925 10.803 8.717-5.072L23.925.66 15.21 5.731l8.716 5.072ZM23.925 56.34l8.717-5.07-8.717-5.073-8.716 5.072 8.716 5.072ZM81.876 43.618h-7.355V31.674L63.833 13.539h8.183L78.2 24.853l6.184-11.314h8.18L81.876 31.674v11.944ZM116.372 43.618h-22.19v-4.77l13.266-19.002H95.001V13.54h21.292v5.007l-13.03 18.764h13.109v6.308Z"
    />
    <mask
      id="b"
      width="230"
      height="57"
      x="0"
      y="0"
      maskUnits="userSpaceOnUse"
      style="mask-type: luminance"
    >
      <path fill="#fff" d="M0 0h229.001v57h-229V0Z" />
    </mask>
    <g mask="url(#b)">
      <path
        fill="#F0B90B"
        d="M128.642 43.618h-6.577V21.266h6.577v22.352Zm-5.93-24.816c-.718-.616-1.078-1.439-1.078-2.464 0-1.024.36-1.853 1.078-2.483.716-.631 1.595-.946 2.639-.946 1.045 0 1.925.315 2.643.946.719.63 1.078 1.46 1.078 2.483 0 1.025-.359 1.848-1.078 2.464-.718.618-1.598.927-2.643.927-1.044 0-1.923-.309-2.639-.927Z"
      />
    </g>
    <mask
      id="c"
      width="230"
      height="57"
      x="0"
      y="0"
      maskUnits="userSpaceOnUse"
      style="mask-type: luminance"
    >
      <path fill="#fff" d="M0 0h229.001v57h-229V0Z" />
    </mask>
    <g mask="url(#c)">
      <path
        fill="#F0B90B"
        d="M153.514 43.618h-19.181v-30.08h7.008V37.31h12.173v6.308Z"
      />
    </g>
    <mask
      id="d"
      width="230"
      height="57"
      x="0"
      y="0"
      maskUnits="userSpaceOnUse"
      style="mask-type: luminance"
    >
      <path fill="#fff" d="M0 0h229.001v57h-229V0Z" />
    </mask>
    <g mask="url(#d)">
      <path
        fill="#F0B90B"
        d="M169.494 38.532c.861-.394 1.449-.944 1.759-1.655.315-.709.498-1.721.551-3.035l-4.032.788c-.73.132-1.299.277-1.704.433-.404.159-.737.37-.999.632a1.95 1.95 0 0 0-.584 1.42c0 .655.247 1.15.741 1.477.498.328 1.123.492 1.88.492.782 0 1.579-.182 2.388-.552Zm-9.531 3.804c-1.37-1.168-2.055-2.831-2.055-4.986 0-2.366.925-4.164 2.778-5.401a9.666 9.666 0 0 1 2.332-1.063c.846-.264 1.819-.5 2.912-.71l5.754-1.026c-.075-1.13-.379-1.997-.899-2.602-.498-.524-1.239-.788-2.231-.788-.782 0-1.486.264-2.115.788-.625.526-1.014 1.25-1.171 2.168h-6.536c.258-1.785.879-3.27 1.856-4.455a8.925 8.925 0 0 1 3.564-2.62 11.709 11.709 0 0 1 4.44-.848c1.358 0 2.631.184 3.818.552 1.187.368 2.212.92 3.073 1.655.861.737 1.486 1.605 1.879 2.602.389.999.629 2.038.723 3.114.089 1.078.138 2.511.138 4.298v10.604h-6.577v-2.72c-.367.867-.887 1.538-1.564 2.011-1.124.788-2.756 1.182-4.893 1.182-2.115 0-3.856-.584-5.226-1.755Z"
      />
    </g>
    <mask
      id="e"
      width="230"
      height="57"
      x="0"
      y="0"
      maskUnits="userSpaceOnUse"
      style="mask-type: luminance"
    >
      <path fill="#fff" d="M0 0h229.001v57h-229V0Z" />
    </mask>
    <g mask="url(#e)">
      <path
        fill="#F0B90B"
        d="M197.507 36.779c.887-1.118 1.333-2.57 1.333-4.357 0-1.76-.446-3.199-1.333-4.317-.887-1.116-2.059-1.674-3.522-1.674-1.461 0-2.636.55-3.523 1.655-.887 1.103-1.329 2.55-1.329 4.336 0 1.814.442 3.273 1.329 4.376.887 1.104 2.062 1.657 3.523 1.657 1.463 0 2.635-.558 3.522-1.676Zm-4.93 6.68c-.914-.418-1.722-1.168-2.426-2.246v2.405h-6.577v-30.08h6.577v10.133c.704-1.078 1.512-1.826 2.426-2.247.913-.42 1.995-.631 3.249-.631 1.879 0 3.549.494 5.009 1.478 1.46.986 2.601 2.366 3.425 4.14.823 1.773 1.231 3.777 1.231 6.011 0 2.26-.408 4.278-1.231 6.052-.824 1.774-1.965 3.154-3.425 4.14-1.46.986-3.13 1.477-5.009 1.477-1.254 0-2.336-.21-3.249-.631Z"
      />
    </g>
    <mask
      id="f"
      width="230"
      height="57"
      x="0"
      y="0"
      maskUnits="userSpaceOnUse"
      style="mask-type: luminance"
    >
      <path fill="#fff" d="M0 0h229.001v57h-229V0Z" />
    </mask>
    <g mask="url(#f)">
      <path
        fill="#F0B90B"
        d="M214.578 43.283a9.634 9.634 0 0 1-4.051-2.641c-1.122-1.222-1.8-2.806-2.036-4.751h6.382c.337 1.052.925 1.847 1.76 2.385.835.539 1.763.808 2.778.808.913 0 1.665-.182 2.253-.552.584-.368.88-.852.88-1.457 0-.684-.367-1.184-1.097-1.499-.73-.315-1.891-.632-3.482-.946-1.751-.341-3.196-.717-4.346-1.124a7.06 7.06 0 0 1-2.975-2.03c-.835-.946-1.251-2.234-1.251-3.863 0-2.313.846-4.027 2.542-5.144 1.696-1.117 3.822-1.676 6.382-1.676 2.741 0 5.017.69 6.828 2.07 1.816 1.38 2.931 3.318 3.347 5.815h-6.222c-.288-.999-.797-1.736-1.527-2.209a4.453 4.453 0 0 0-2.467-.709c-.808 0-1.452.158-1.935.473-.483.315-.726.724-.726 1.222 0 .684.37 1.176 1.115 1.478.745.303 1.924.6 3.542.888 1.774.315 3.249.669 4.424 1.065a7.136 7.136 0 0 1 3.032 1.97c.85.92 1.273 2.181 1.273 3.785 0 1.473-.386 2.773-1.153 3.903-.771 1.129-1.875 2.004-3.309 2.622-1.434.616-3.118.925-5.05.925-1.696 0-3.332-.269-4.911-.808Z"
      />
    </g>
  </g>
  <defs>
    <clipPath id="a"><path fill="#fff" d="M0 0h229v57H0z" /></clipPath>
  </defs>
</svg>
